<svg id="图层_1" data-name="图层 1" xmlns="http://www.w3.org/2000/svg" viewBox="0 0 74.23 74.24"><defs><style>.cls-1{fill:#fff;}</style></defs><title>深大logo</title><path class="cls-1" d="M56.94,20a2,2,0,0,1-2.54,1.69c-1.42-.22-2.24-1-2.09-2l.63-4c.11-.73-.73-.5-.69-.75,0-.08.06-.12.2-.09l1.27.21,1.28.18c.14,0,.17.08.16.15,0,.26-.77-.22-.88.51l-.63,4a1.36,1.36,0,0,0,1.17,1.55A1.57,1.57,0,0,0,56.71,20l.43-2.77c.13-.79-.1-1.28-.5-1.48-.13-.07-.26-.1-.25-.19s0-.09.14-.08.6.12,1,.17l1,.14c.11,0,.12.06.12.12s-.16.07-.3.09c-.44.07-.81.48-.93,1.26Z" transform="translate(-13.01 -11)"/><path class="cls-1" d="M59.69,21.3a1.11,1.11,0,0,0,.06,1.3c.19.2.45.21.38.36s-.05.08-.16,0L59,22.56c-.35-.16-.69-.29-1-.41-.1,0-.1-.1-.08-.15s.25,0,.53,0,.7-.16,1-.83l1.64-3.71a1.12,1.12,0,0,0-.55-.89c-.13-.08-.19-.11-.15-.2s.08-.08.15-.05l.9.42,1,.42,1.35,5.15h0l1.11-2.51a1.11,1.11,0,0,0-.06-1.3c-.19-.2-.45-.22-.38-.36s0-.08.16,0l1,.44c.35.16.69.29,1,.41.1.05.1.1.08.15s-.25,0-.53,0-.7.16-1,.83l-1.93,4.37c-.07.16-.13.27-.2.24s-.09-.16-.12-.3l-1.63-6.39h0Z" transform="translate(-13.01 -11)"/><path class="cls-1" d="M68.48,21.28c.43-.61-.43-.78-.27-1,0-.06.1-.07.22,0l1,.77,1.06.73c.12.09.12.15.08.21s-.59-.55-1,0L66.79,26c-.43.61.43.78.28,1s-.1.07-.22,0l-1-.77-1.06-.73c-.12-.09-.12-.15-.08-.21.15-.21.59.55,1-.05Z" transform="translate(-13.01 -11)"/><path class="cls-1" d="M74.33,27.64a1.7,1.7,0,0,0,.52-.33c.65-.61-.06-1,.11-1.2a.15.15,0,0,1,.19,0c.21.23.41.47.63.7l.65.66c.12.13.17.24.11.29s-.41-.59-1.75-.07l-4.93,1.9c-.12.05-.22.08-.26,0s0-.14.05-.25L72,24.08c.35-.77-.19-1-.05-1.12a.11.11,0,0,1,.15,0c.33.34.6.66.9,1s.59.6.88.91c.11.12.12.18.07.23s-.41-.5-.76-.17a.84.84,0,0,0-.2.29l-1.7,3.6Z" transform="translate(-13.01 -11)"/><path class="cls-1" d="M77,29.7c.64-.38-.08-.88.15-1,.06,0,.12,0,.19.1.25.4.46.79.65,1.11.59,1,1.15,1.92,1.72,2.85l-1.28,1.31a1,1,0,0,1-.18.17.08.08,0,0,1-.11,0c0-.07.1-.15.43-.76A2.22,2.22,0,0,0,78.41,31l-.26-.43L75.86,32l.12.2a1.15,1.15,0,0,0,1.58.41c.16-.09.21-.09.26,0s0,.1-.06.15l-2.44,1.45c-.07,0-.13,0-.15,0s0-.13.13-.23a1.16,1.16,0,0,0,.49-1.64l-.12-.2-2,1.19c-.36.22-.47.48-.16,1a2.6,2.6,0,0,0,3,1.16c.18,0,.26-.08.3,0a.09.09,0,0,1,0,.13l-.25.11-2,.7c-.62-1.05-1.24-2.12-1.9-3.22-.19-.32-.44-.69-.68-1.1-.08-.12,0-.18,0-.22.22-.13.32.74,1,.36Z" transform="translate(-13.01 -11)"/><path class="cls-1" d="M78.34,40.17a1.19,1.19,0,0,0,.26-1.32l-2.13.63c-.71.21-.14.87-.39.94-.07,0-.13,0-.17-.14-.13-.46-.24-.89-.34-1.24s-.25-.78-.39-1.23c0-.14,0-.19.07-.21.25-.08.13.79.84.58l4.6-1.36c.71-.21.14-.87.38-.94.08,0,.13,0,.17.14.14.46.24.89.35,1.24s.26.82.43,1.41c.45,1.52,0,2.53-.89,2.79-.75.22-1.51-.06-2.24-1.83h0a1.8,1.8,0,0,1-.36,2.07l-1.09,1c-.6.57-.09,1.06-.34,1.13,0,0-.1,0-.12-.06-.09-.32-.17-.64-.26-1l-.29-1Zm.42-1.37.1.35a1.33,1.33,0,0,0,1.87,1c1-.29,1.24-.89,1-1.64L81.59,38Z" transform="translate(-13.01 -11)"/><path class="cls-1" d="M79.56,44.37c.11,0,.14,0,.14.08s-.14.1-.33.15c-1.16.28-2.31.8-2.25,2.15,0,.94.55,1.45,1.27,1.42,1.86-.09.77-3.75,3.06-3.86a2,2,0,0,1,2,2,6.48,6.48,0,0,1-.29,1.61c0,.32.26.17.27.34s0,.1-.16.12l-1.74.25-.3,0c-.07,0-.1,0-.1-.07s.19-.11.55-.28c1-.45,1.6-1,1.55-2,0-.65-.35-1.16-1-1.12-1.52.07-.49,3.78-3,3.9a2.26,2.26,0,0,1-2.29-2.32c-.05-.92.36-1.37.34-1.73s-.33-.29-.34-.45,0-.08.08-.08Z" transform="translate(-13.01 -11)"/><path class="cls-1" d="M82.42,51.76c.73.1.48-.74.74-.71.07,0,.11.06.09.2-.06.47-.14.91-.19,1.28s-.09.81-.15,1.28c0,.14-.07.17-.15.16-.25,0,.21-.77-.52-.87l-4.76-.64c-.73-.1-.48.74-.74.7-.07,0-.11,0-.09-.2.06-.46.14-.9.19-1.27s.09-.81.15-1.28c0-.14.07-.17.15-.16.25,0-.21.77.52.87Z" transform="translate(-13.01 -11)"/><path class="cls-1" d="M81.64,58c.11-1.9-1.21-2.44-1.15-2.64a.09.09,0,0,1,.12-.05,2,2,0,0,1,.3.15l1.51.83c.12.07.15.1.13.15s0,.07-.1.1a.43.43,0,0,0-.16.2L81,60.62a.44.44,0,0,0,0,.26c0,.06,0,.1,0,.14s0,.06-.2,0l-1.7-.25-.33-.06c-.06,0-.08-.06-.06-.11.07-.2,1.45.17,2.51-1.41l-4.87-1.64c-.56-.19-.77,0-.92.48,0,.1-.08.14-.16.12s-.09-.08-.05-.18c.16-.5.33-.94.47-1.35s.27-.87.44-1.37c0-.1.08-.13.14-.11s.1.09.07.2c-.15.43-.12.74.44.93Z" transform="translate(-13.01 -11)"/><path class="cls-1" d="M75.39,64.44l.71,1.29a2.45,2.45,0,0,0,.75.86c.52.33.75-.21.88-.13s0,.1,0,.21-.29.43-.48.74l-.44.74c0,.06-.09.07-.13,0s.28-.33-.5-1.86l-1-1.89-1.9-1.18c-.63-.39-.74.47-1,.34-.06,0-.08-.1,0-.22.25-.41.5-.77.69-1.09s.42-.7.67-1.1c.07-.13.13-.13.2-.09s-.51.62.12,1l1.74,1.09,3.09.17c.84.05.9-.52,1.07-.42s.06.1,0,.19c-.24.39-.48.74-.71,1.11s-.44.74-.67,1.11q-.11.17-.18.12c-.17-.1.33-.48-.11-.75a1.08,1.08,0,0,0-.53-.14Z" transform="translate(-13.01 -11)"/><path class="cls-1" d="M26.81,66.38c-.09.06-.14,0-.17,0s.07-.16.21-.3c.85-.84,1.57-1.87.82-3-.52-.78-1.22-1-1.82-.57-1.55,1,1.27,3.61-.64,4.89a2,2,0,0,1-2.74-.67,6.34,6.34,0,0,1-.58-1.53c-.18-.27-.32,0-.41-.15s0-.1.08-.18l1.36-1.11c.14-.11.2-.17.24-.19a.07.07,0,0,1,.12,0c0,.07-.11.19-.33.52-.63.91-.86,1.66-.29,2.52.36.54.89.82,1.48.43,1.26-.85-1.53-3.51.56-4.9a2.26,2.26,0,0,1,3.16.82c.51.76.4,1.36.6,1.66s.43.08.52.21,0,.07,0,.11Z" transform="translate(-13.01 -11)"/><path class="cls-1" d="M20.18,60.9c-.7.23-.1.87-.35,1-.07,0-.12,0-.17-.14-.15-.45-.28-.88-.39-1.23s-.28-.76-.43-1.21c-.05-.14,0-.19.05-.22.25-.08.16.79.86.56l2-.68L21,56.64l-2,.68c-.7.23-.11.87-.35,1-.07,0-.13,0-.18-.13-.15-.45-.27-.88-.39-1.23s-.28-.76-.43-1.21c0-.14,0-.19.06-.22.24-.08.16.79.86.55l4.54-1.53c.71-.23.11-.87.36-1,.07,0,.12,0,.17.13.15.45.27.88.39,1.23s.28.77.43,1.21c0,.14,0,.19-.06.22-.24.08-.15-.79-.86-.55l-2.31.78.77,2.3,2.32-.78c.7-.24.1-.88.35-1,.07,0,.13,0,.17.13.15.45.28.88.4,1.23s.27.77.42,1.21c.05.14,0,.19-.05.22-.25.08-.16-.79-.86-.55Z" transform="translate(-13.01 -11)"/><path class="cls-1" d="M17.82,51.76c-.74,0-.34.82-.6.83-.08,0-.13,0-.13-.18,0-.47,0-.92-.05-1.29-.05-1.14-.12-2.23-.18-3.32l1.75-.55a1.05,1.05,0,0,1,.23-.07c.05,0,.08,0,.08.09s-.15.08-.74.47a2.21,2.21,0,0,0-1,2.2l0,.5,2.67-.13v-.23A1.15,1.15,0,0,0,18.66,49c-.18,0-.23,0-.23-.12s0-.1.12-.1l2.83-.14c.08,0,.13,0,.13.09s0,.12-.22.14c-.82.08-1.23.57-1.2,1.22v.23l2.33-.12c.43,0,.64-.19.61-.79A2.59,2.59,0,0,0,21,47c-.18,0-.27,0-.27-.13a.09.09,0,0,1,.1-.1l.27,0,2.07.31c.05,1.22.1,2.45.16,3.74,0,.37.06.81.09,1.28,0,.15,0,.19-.12.19-.26,0,.07-.8-.67-.76Z" transform="translate(-13.01 -11)"/><path class="cls-1" d="M22,44.07c.72.15,1.08-.07,1.26-.32s.13-.48.28-.45.09,0,.07.15c-.07.31-.16.66-.24,1s-.14.73-.21,1c0,.11-.07.12-.13.11s0-.25-.06-.53-.3-.65-1-.81L18,43.42a1.16,1.16,0,0,0-.78.71c0,.14-.06.2-.16.18a.09.09,0,0,1-.07-.13c.06-.31.15-.64.23-1l.22-1,4.78-2.34v0l-2.67-.59c-.73-.16-1.09.07-1.27.31S18.16,40,18,40s-.09,0-.07-.14c.07-.31.17-.66.25-1s.14-.73.21-1c0-.1.07-.11.12-.1s0,.25.07.53.29.65,1,.81l4.66,1c.17,0,.3.07.28.14s-.14.12-.26.18l-5.94,2.87v0Z" transform="translate(-13.01 -11)"/><path class="cls-1" d="M25.45,36.86a2.43,2.43,0,0,0-.07-2.35c-.36-.62-.87-.85-.8-1a.1.1,0,0,1,.13,0c.05,0,.16.11.31.21l1.6,1.18c-.32.66-.65,1.35-1,2S25,38.3,24.69,39c0,.06-.08.08-.12.06s-.08-.08-.16-.19l-3.77-5.58-.23.5a2.26,2.26,0,0,0,.09,2.4c.42.63.55.61.5.72s-.06.06-.1,0a1.3,1.3,0,0,1-.19-.15L19.3,35.61c.28-.6.59-1.2.88-1.82s.56-1.24.86-1.88c.05-.11.09-.12.13-.1a1,1,0,0,1,.19.24l3.76,5.5Z" transform="translate(-13.01 -11)"/><path class="cls-1" d="M23.2,29.83c-.58-.47-.8.38-1,.22s-.07-.11,0-.22l.82-1,.79-1c.09-.12.15-.12.21-.07s-.58.56,0,1L25.7,30.1l1.52-1.89-1.66-1.33c-.58-.46-.8.38-1,.22s-.07-.1,0-.22c.3-.37.59-.7.82-1s.5-.65.79-1c.1-.11.16-.11.21-.07.21.17-.57.56,0,1l3.75,3c.57.46.79-.39,1-.23s.07.11,0,.22c-.29.37-.59.71-.82,1s-.49.64-.79,1c-.09.12-.15.12-.21.07s.58-.56,0-1l-1.91-1.53-1.51,1.89,1.9,1.53c.58.47.8-.38,1-.22s.07.11,0,.22c-.3.37-.59.7-.82,1l-.79,1c-.1.12-.15.12-.21.07s.58-.56,0-1Z" transform="translate(-13.01 -11)"/><path class="cls-1" d="M29.59,22.9c-.43-.6-.86.16-1,0s0-.12.09-.21l1.05-.73c.94-.67,1.82-1.32,2.7-2l1.41,1.17a1.18,1.18,0,0,1,.18.16s0,.08,0,.12-.15-.09-.79-.37a2.21,2.21,0,0,0-2.39.36l-.41.29,1.55,2.17.19-.14a1.14,1.14,0,0,0,.27-1.6c-.1-.16-.1-.21,0-.27s.11,0,.16.05l1.64,2.31c.05.07.05.13,0,.16s-.12,0-.24-.12a1.16,1.16,0,0,0-1.67-.35l-.19.14,1.36,1.9c.25.34.51.43,1,.08a2.59,2.59,0,0,0,.91-3c0-.18-.09-.25,0-.3a.11.11,0,0,1,.14,0,2.65,2.65,0,0,1,.12.24l.87,1.91c-1,.7-2,1.41-3.05,2.16l-1,.77c-.12.08-.18.07-.22,0s.71-.38.27-1Z" transform="translate(-13.01 -11)"/><path class="cls-1" d="M38.17,22.33c.26.7.64.88.94.89s.48-.16.54,0,0,.1-.09.14c-.3.11-.64.22-1,.36s-.69.27-1,.39c-.1,0-.13,0-.15-.05s.2-.15.4-.35.39-.6.13-1.29l-1.43-3.79a1.18,1.18,0,0,0-1-.26c-.14,0-.2.06-.24,0s0-.11.07-.14l.94-.33,1-.37,4.57,2.73h0l-1-2.56c-.26-.69-.64-.88-.95-.89s-.47.16-.53,0,0-.1.09-.14l1-.35,1-.39c.11,0,.14,0,.16,0s-.2.15-.4.35-.39.6-.13,1.29L42.76,22c.07.17.1.29,0,.32s-.17-.05-.29-.13l-5.64-3.41h0Z" transform="translate(-13.01 -11)"/><path class="cls-1" d="M34.46,73.73a.87.87,0,1,1-.86-.87A.86.86,0,0,1,34.46,73.73Z" transform="translate(-13.01 -11)"/><path class="cls-1" d="M67.46,73.73a.87.87,0,1,1-.87-.87A.87.87,0,0,1,67.46,73.73Z" transform="translate(-13.01 -11)"/><path class="cls-1" d="M40.37,78.88c-.13.37,0,.64.53.84s.56.21.52.35-.08.09-.18.05l-1.76-.59L37.67,79c-.1,0-.12-.1-.11-.16s.14-.1.63,0,.8,0,.92-.35l1.38-4.1c.07-.2,0-.26-.13-.31l-1.19-.4c-.08,0-.12-.08-.1-.14s.2,0,1,.14a5.72,5.72,0,0,0,1.93,0c.08,0,.1.08,0,.23Z" transform="translate(-13.01 -11)"/><path class="cls-1" d="M46.83,74.63a2.48,2.48,0,0,1,2.15,3c-.28,2.66-3.75,3.32-4.17,3.27,0,0-.05,0-.05-.08a4.19,4.19,0,0,0,2.72-2.61,2.13,2.13,0,0,1-1.27.25,1.92,1.92,0,0,1-2-2.11C44.37,75.23,45.27,74.47,46.83,74.63Zm-.34,3.62a1.39,1.39,0,0,0,1.09-.39,3.33,3.33,0,0,0,.17-.81c.18-1.66-.29-2.18-1-2.25s-1.1.2-1.25,1.61S45.89,78.19,46.49,78.25Z" transform="translate(-13.01 -11)"/><path class="cls-1" d="M51.71,78a1.65,1.65,0,0,1-.88-1.29c-.09-1,.8-1.87,2.09-2a1.68,1.68,0,0,1,2,1.29,1.7,1.7,0,0,1-.63,1.42A1.71,1.71,0,0,1,55.53,79c.09,1.06-.89,2-2.4,2.13a1.92,1.92,0,0,1-2.31-1.54A1.83,1.83,0,0,1,51.71,78Zm1.4,3a1.26,1.26,0,0,0,1.29-1.41c0-.49-.28-.88-1.29-1.16a7,7,0,0,0-1.18-.32,1.31,1.31,0,0,0-.51,1.32A1.52,1.52,0,0,0,53.11,81Zm-.17-6.1a1,1,0,0,0-1,1.17c.08.94,1.52,1.15,2.18,1.31a1.45,1.45,0,0,0,.29-1.16A1.28,1.28,0,0,0,52.94,74.86Z" transform="translate(-13.01 -11)"/><path class="cls-1" d="M60.3,75.67A2,2,0,0,1,61.77,77,2.42,2.42,0,0,1,60,79.84c-1.26.39-2.25.06-2.45-.56a.67.67,0,0,1,.41-.86c.45-.14.72.07.93.66s.62.74,1,.61a1.34,1.34,0,0,0,.79-1.84,1.51,1.51,0,0,0-1.4-1.14c-.39,0-.72.2-.76.07s.34-.11.71-.48a1.19,1.19,0,0,0,.15-1.19,1.06,1.06,0,0,0-1.48-.66c-1,.3-.82,1-1,1.09a.09.09,0,0,1-.1-.06,2,2,0,0,1,1.43-1.83,1.64,1.64,0,0,1,2.19.91A1.37,1.37,0,0,1,60.3,75.67Z" transform="translate(-13.01 -11)"/><path class="cls-1" d="M50.13,85.24a37,37,0,1,1,14.45-2.92,37,37,0,0,1-14.45,2.92Zm0-72.94A35.82,35.82,0,1,0,85.94,48.12,35.86,35.86,0,0,0,50.13,12.3Z" transform="translate(-13.01 -11)"/><path class="cls-1" d="M43.74,51.28a.35.35,0,0,0,.26.06.92.92,0,0,0,.49-.19s.1,0,.1-.07-.38-.25-.58-.26a1,1,0,0,0-.59.25C43.42,51.14,43.66,51.25,43.74,51.28Z" transform="translate(-13.01 -11)"/><path class="cls-1" d="M46,55.88c.11-.55-.09-.4-1.23-.44-.52,0-2.34,0-2.86,0a.3.3,0,0,0-.27.34c0,.4-.1.35,1.86.35l.76-.06C45.44,56,45.75,56.18,46,55.88Z" transform="translate(-13.01 -11)"/><path class="cls-1" d="M65.75,38.32a1.7,1.7,0,0,0,.55,1.26v0l5.88,5.88h0a1.75,1.75,0,0,1,.51,1.23V39.35a1.79,1.79,0,0,0-.44-1.07L59.92,26a1.7,1.7,0,0,0-1.07-.45h-.91a.44.44,0,0,0-.43.44V31.8a.65.65,0,0,1-.65.65H56.2V26.81a1.31,1.31,0,0,0-1.3-1.31H45.35a1.31,1.31,0,0,0-1.3,1.31v5.64H43.4a.65.65,0,0,1-.65-.65V25.94a.44.44,0,0,0-.44-.44H41.4a1.69,1.69,0,0,0-1.06.45L28,38.28a1.73,1.73,0,0,0-.44,1.07v7.36a1.71,1.71,0,0,1,.51-1.23h0L34,39.6v0a1.73,1.73,0,0,0,.54-1.26v1.23A1.71,1.71,0,0,1,34,40.78h0l-5.88,5.88v0a1.69,1.69,0,0,0-.54,1.26v6.65a1.72,1.72,0,0,1,.51-1.23h0L34,47.48h0a1.76,1.76,0,0,0,.54-1.26v1.22A1.71,1.71,0,0,1,34,48.66h0l-5.88,5.89h0a1.71,1.71,0,0,0-.54,1.26v1A1.73,1.73,0,0,0,28,57.87l1.72,1.72L34,55.36h0a1.74,1.74,0,0,0,.54-1.26v1.23A1.72,1.72,0,0,1,34,56.55h0L30.33,60.2l9.9,9.9,2.68-4.81a1.36,1.36,0,0,1,1.2-.72h1a1.36,1.36,0,0,0-1.21.74h0L41,70.58a1.53,1.53,0,0,0,.4.07h5.08l1-5.36a.89.89,0,0,1,.87-.72h.88a.88.88,0,0,0-.86.73l-1,5.35h5.51l-1-5.35a.88.88,0,0,0-.86-.73h.89a.87.87,0,0,1,.86.72l1,5.36h5.08a1.53,1.53,0,0,0,.4-.07l-2.93-5.27h0a1.34,1.34,0,0,0-1.2-.74h1a1.36,1.36,0,0,1,1.2.72L60,70.1l9.9-9.9-3.65-3.65h0a1.73,1.73,0,0,1-.52-1.23V54.09a1.71,1.71,0,0,0,.55,1.26h0l4.22,4.23,1.73-1.72a1.79,1.79,0,0,0,.44-1.07v-1a1.74,1.74,0,0,0-.54-1.26h0l-5.88-5.89h0a1.71,1.71,0,0,1-.52-1.23V46.21a1.73,1.73,0,0,0,.55,1.26h0l5.88,5.88h0a1.76,1.76,0,0,1,.51,1.23V47.94a1.73,1.73,0,0,0-.54-1.26v0l-5.88-5.88h0a1.71,1.71,0,0,1-.52-1.23V38.32ZM55,38.73c.19-1.82.23-1.63,1.24-2a14.43,14.43,0,0,1,2.48-.38,10,10,0,0,1,3.31.54c.55.2.33.38.36,2.47-.09.78-.16.65-1,.73a6,6,0,0,1-1.87-.2c-.27-.35-.62-2.21-1.25-2-.26.19,0,.22-.45,1.13a5.52,5.52,0,0,1-.42.77,4.57,4.57,0,0,1-1.93.24C54.78,40,55,39.68,55,38.73Zm-1.28-1.54c0-.38,0-.47.31-.49.5,0,.49.17.53.42,0,.4,0,1.21,0,2,0,.45,0,1.4-.35,1.53s-.63.1-.61-.35a5.3,5.3,0,0,1,.18-1.06A12.54,12.54,0,0,0,53.67,37.19Zm.23,4.62c.45.19.48,1.62.48,1.62,0,.19,0,1.44,0,1.87a2.69,2.69,0,0,1,0,.9.63.63,0,0,1-.57.09c-.21-.12-.32-1.23-.32-1.6a16.48,16.48,0,0,0-.12-2C53.27,41.81,53.36,41.9,53.9,41.81ZM52.17,41a30.2,30.2,0,0,0,.15-3.24,5.11,5.11,0,0,1,.08-1.22c.05-.18.23-.2.53-.23.49-.1.38,1.61.38,1.61,0,1.48-.44,4.39-.44,5.15-.15,1.25.45,4.58.12,4.89-.11,0-.52.12-.63-.09A14.45,14.45,0,0,1,52,44.45,22.1,22.1,0,0,1,52.17,41ZM50.89,39.1c.14-.89.07-1.92.15-2.19a.67.67,0,0,1,.6-.09c.33.23.44,3.13-.3,3.71-.22,0-.48,0-.57-.13S50.78,39.75,50.89,39.1ZM50.5,43c0-1.17.12-1.37.34-1.71a.64.64,0,0,1,.7.19,21.24,21.24,0,0,1-.15,3.38c-.06.91.23,1.84-.13,2s-.65,0-.68-.25C50.45,45.5,50.5,43,50.5,43ZM49.44,57.29c-.06,1.53-.09,1.38-1.15,1.38l-3.38,0c0,.21,0,.69,0,1.12,0,.59.38.75-2.06,1-.58.06-4.26-.09-4.5-.52s-.72-1.17-.37-1.79a6.56,6.56,0,0,0,2.13,1.13,8.52,8.52,0,0,0,3.09.07c.53-.21.51-.37.48-.94l-3.2-.18c-.94-.11-.89-.1-.91-.57s.14-.48.76-.44a16.26,16.26,0,0,0,2.05.1h1.3v-.75s-1.32.05-1.81,0c-1.56-.07-1.31-.29-1.39-1,.14-1.27.13-1.1,1.28-1.17,1,0,3.78-.07,4.51,0,1.13.11,1,.19,1,1.19-.12.58.09.77-1,.94-.2,0-1.27.08-1.27.08v.74h2.51s.9,0,.9-.75.1-1.87.1-1.87a.78.78,0,0,0-.78-.79c-.77,0-5-.07-6.71,0-1.33,0-1.36.23-1.48.69s-.22,2.64-.61,2.56c-1-.25-.78-.36-.77-1a19.47,19.47,0,0,1,.32-2.4c.22-.55.31-.85,3.6-.83h6c1,.06,1.35,0,1.48,1A16.49,16.49,0,0,1,49.44,57.29Zm-9.89-6.72c0,.23.4.2,1.18.17s.64-.15.66.41c0,.22,0,.27-.43.28-1.58.08-1.44,0-1.44.41s.27.25,1.22.2c.62,0,.66-.12.71.29a1.46,1.46,0,0,1,0,.44c-.45,0-2.18.18-2.61.13s-.45,0-.43-.94a13.28,13.28,0,0,1,.28-2.31c.2-.42.22-.34,2-.41.93,0,.83-.06.9.56,0,.23.06.27-1.44.36C39.43,50.14,39.54,50.09,39.55,50.57Zm2.6-.85c-.09,0,.22-.5.4-.54a9.19,9.19,0,0,1,1,.46l.48.22.24-.12a5.38,5.38,0,0,1,1.34-.61c.07,0,.41.56.18.7a6.54,6.54,0,0,1-.86.53l.53.29c.37.18.45.26.41.64a.88.88,0,0,1-.29.25c-.2.08-.36.2-.57.29l.48.24c.69.39.66.3.45.66a.61.61,0,0,1-.82.1c-.08,0-.63-.26-1.12-.53a11.42,11.42,0,0,1-1,.53c-.48.22-.56.24-.73,0-.29-.42-.11-.4.38-.7a3.72,3.72,0,0,0,.47-.26,6.21,6.21,0,0,1-.72-.37c-.07,0-.26-.15-.28-.27s-.07-.38.47-.67l.48-.23A2.37,2.37,0,0,1,42.15,49.72Zm7.06,3.05c-.37.08-2.46.13-2.5.12-.2,0-.23,0-.22-.27s0-.45.73-.44,1.22.07,1.22-.34-.08-.37-1.2-.33c-.64,0-.61,0-.64-.13-.07-.39-.17-.62.39-.65.78-.07,1.43,0,1.47-.2s0-.45-.62-.41c-1.3.09-1.37.19-1.38-.23s-.17-.51.87-.57,1.89-.14,2,.33A9.36,9.36,0,0,1,49.51,52C49.53,52.74,49.49,52.72,49.21,52.77ZM49,48.34c-.36.19-1.7-1.64-2.63-2.83A4.42,4.42,0,0,0,43.84,44c-1.59-.09-3.77,2.73-4.32,3.69-.28.43-.59.86-1.06.64s-.42-.26-.17-1a14.13,14.13,0,0,1,3.26-3.83c.9-.84,1.12-1,1.4-1.94.15-1.82.1-2.25-.43-2.34s-2.87-.4-3,1c-.08,1.24-.07,1.78-.08,2.28,0,.74-.06.62-.79.63-.48,0-.23-2.48-.23-4.16.26-1,.88-.82,1.88-.91a13.81,13.81,0,0,0,1.58,0c.84,0,1-.43,1.09-1.1s.12-.73.71-.82.48.32.59.85c.19.82-.09.88,1.09.94,1,0,1.79,0,2.22.06,1,.1,1.53,0,1.59,1.51,0,1.28.36,2.48,0,3a1.17,1.17,0,0,1-.94.37c-.41-.22.45-3-.61-3.51a5.44,5.44,0,0,0-2.91,0c-.49.23-.29,1.23-.34,1.95s0,1.17,1.16,1.92a19.37,19.37,0,0,1,3.31,3.24C49.48,47.14,50.05,48,49,48.34Zm.65-15.89H44.48a1.31,1.31,0,0,1,1.31-1.3H49a.65.65,0,0,1,.65.65Zm5,22.53c-.2.21-.95.3-1.11.54a5.32,5.32,0,0,0,0,2.07c.13.15.48.06,1,0s.54,1.24.24,1.28-1.46.18-2.07.24a11.67,11.67,0,0,1-1.64.13c-.57,0-.56-.31-.62-.75s-.06-.67.42-.61a1.41,1.41,0,0,0,1.2-.28c.3-.25.12-.9.17-1.38s.1-.84-.52-.68c-.87.2-.92.34-.92-1.14,0-.53,0-1,0-1.39,0-.71-.11-1.07.79-1.26.38-.08.18,1.09.17,1.64s-.07,1.07.22,1.07c.74.05.31-1.6.37-3,0-.92-.17-1.34.56-1.48s.49.15.52.91,0,3.22.28,3.19c.62,0,.5-2.15.46-2.52,0-.56-.12-.81.46-.86s.45,0,.54.46a11,11,0,0,1,.1,1.42c0,.51-.07.78-.17,1.33A1.55,1.55,0,0,1,54.66,55Zm2.71,5.72a1.77,1.77,0,0,1-.86,0c-.29-.05-.43-.38-.67-1.13-.11-.41-.22-.81-.41-1.77a6.15,6.15,0,0,1,0-2.5A8.18,8.18,0,0,1,56,53.86a9.73,9.73,0,0,0,.57-1.59,2.72,2.72,0,0,0,0-1.5,7.45,7.45,0,0,0-.36-1c-.22-.47-.35-.7.18-.76.78-.06.72,0,1.07.54A3.59,3.59,0,0,1,57.83,51a4.66,4.66,0,0,1-.56,2.71,4.38,4.38,0,0,0-.75,2.75,14.08,14.08,0,0,0,.54,3C57.18,59.86,57.62,60.64,57.37,60.7ZM59.26,59c.23.82.77,1.53.42,1.62a1.13,1.13,0,0,1-.92-.14,4.29,4.29,0,0,1-.84-2.1,10.76,10.76,0,0,1-.15-2.91c.36-1.56,1.15-2.05,1.28-3.35a2.79,2.79,0,0,0-.14-1.45c-.22-.62-.95-1.58-.1-1.58.52,0,.53.07.73.23a4,4,0,0,1,.76,2,6.54,6.54,0,0,1-.69,2.75,5.88,5.88,0,0,0-.73,2.39A13.64,13.64,0,0,0,59.26,59Zm3-5.88c-.42,1.59-.79,1.4-1.1,3.16a15.58,15.58,0,0,0,.51,2.7c.1.51.6,1.53.35,1.6a1.51,1.51,0,0,1-1-.2c-.29-.22-.53-1.26-.65-1.61a6.28,6.28,0,0,1,.11-4.18,7.56,7.56,0,0,0,.75-2.21,5.75,5.75,0,0,0-.31-2.47c-.17-.43-.4-.76,0-.78,1.16,0,1,.35,1.35,1.12A6.28,6.28,0,0,1,62.26,53.11ZM62,47.76c-.64.22-.58-.09-.61-1,0-.58.05-2.4-.74-2.66s-1.32-.35-1.47-.13-.06,3.36-.06,3.36c0,.75-.32.63-.66.58-.64-.17-.57-.54-.56-1.13a19.77,19.77,0,0,0-.1-2.87A1.21,1.21,0,0,0,56.26,45c-.2,1.22-.34,2-.38,2.3s-.06.36-.18.4-.68.18-.76,0A6.41,6.41,0,0,1,55,45.87a14,14,0,0,1,.58-2.1c.09-.47,1.35-.79,2.07-1.09.42-.11.3-.77.16-.79a9.66,9.66,0,0,0-1.58.13c-.37,0-.69.29-1-.35-.14-.32-.2-.59.67-.64l1.13-.09s.81,0,.86-.16a1.9,1.9,0,0,1,.23-.92c.06-.1.39,0,.59,0,.43.12.27.14.34.67,0,.25-.06.31,1.36.28,1,0,1.73-.15,1.7.25,0,.2,0,.61-.09.71s-.42.09-.89.11c-.7,0-1.83,0-2,.07s-.09.25,0,.47,0,.17.62.32c2.18.64,2.16.51,2.5,1.93a11.81,11.81,0,0,1,.19,2.22C62.41,47.26,62.57,47.55,62,47.76Z" transform="translate(-13.01 -11)"/><path class="cls-1" d="M60.68,38.91l.52,0c.28-.06.25-.47.09-1.06-.17-.35-.67-.33-1.15-.32-.2,0-.34,0-.27.35C60.06,39,60.11,38.84,60.68,38.91Z" transform="translate(-13.01 -11)"/><path class="cls-1" d="M56.09,39l.38,0c.77-.06.72-.47.81-1.12,0-.25-.38-.2-.8-.12s-.41.06-.49.35S55.81,38.9,56.09,39Z" transform="translate(-13.01 -11)"/></svg>