<svg id="图层_2" data-name="图层 2" xmlns="http://www.w3.org/2000/svg" viewBox="0 0 78.82 78.81"><defs><style>.cls-1,.cls-2{fill:#fff;}.cls-1{fill-rule:evenodd;}</style></defs><title>学院logo</title><path class="cls-1" d="M49.44,19.77A28.64,28.64,0,1,1,20.8,48.41,28.64,28.64,0,0,1,49.44,19.77m-14,13h.1v-5c0-2.09,2.11-4.33,4.18-4L54.9,26.06a4.38,4.38,0,0,1,3.71,2.63,2.06,2.06,0,0,1,1.64,1.38l6.8.84c3,.36,6,2.58,6,5.56V50.2a5.83,5.83,0,0,1-3.62,5.14v5.14a7.25,7.25,0,0,1-6.79,7.12L35.32,69.4c-3.74.24-6.88-3.35-6.88-7.12V39.83c0-3.77,3.29-7.3,7-7m30.93,3.26a1.81,1.81,0,1,1-1.82,1.81,1.81,1.81,0,0,1,1.82-1.81M42.53,53.37a2.11,2.11,0,1,1-2.11,2.12,2.11,2.11,0,0,1,2.11-2.12m0-1.21a3.32,3.32,0,0,1,3.32,3.15,3.61,3.61,0,0,0,.87,0L66,54.07a5.92,5.92,0,0,0,1.18-.19v-11a5.91,5.91,0,0,0-.33-2,3.75,3.75,0,0,1-.48,0,3.07,3.07,0,0,1-3.08-3.07,2.78,2.78,0,0,1,.06-.58,6.85,6.85,0,0,0-2.26-.53l-2.35-.14v2.75c0,2.09-1.93,3.45-4,3.64l-13,1.14v6.48A4.73,4.73,0,0,0,42,52.19a2.63,2.63,0,0,1,.49,0m2.79,5.15a3.34,3.34,0,0,1-6.12-1.82,3.3,3.3,0,0,1,1-2.4A5.43,5.43,0,0,1,40,51.6V44.31l-.43,0c-2.09.18-4-1.91-4-4V35.19c-3.1,0-4.91,2.64-4.91,5.86v20a5.69,5.69,0,0,0,6,5.87L61,65.33c3.35-.23,6.22-2.52,6.22-5.87V55.88L45.68,57.3h-.36M66.41,34.8A3.07,3.07,0,0,1,69,39.52a6.28,6.28,0,0,1,.46,2.33v11a4.28,4.28,0,0,0,1.85-3.43V37.26c0-2.65-2.53-4.49-5.17-4.79l-6.07-.7a2.08,2.08,0,0,1-1.29.95v1.82l3.5.27a8,8,0,0,1,2.37.54,3.14,3.14,0,0,1,1.76-.55m-8.87-2.16a2.05,2.05,0,0,1-1.21-1.3L46.19,30.19A3.88,3.88,0,0,0,42,33.29l15.58,1.16Zm-1-3a2,2,0,0,1,.68-.66,3.76,3.76,0,0,0-3-1.8L40,25.17c-1.84-.27-3.21,1.5-3.21,3.37v4.37l3.23.24c.36-2.74,3-5.2,5.75-4.87Zm1,6.93V38.8c0,1.86-1.84,2.77-3.7,2.94l-12.07,1.1V35.56ZM40,43a3.32,3.32,0,0,1-3.18-3.32V35.25l3.18.2ZM22.51,26.87l1.77-2c.08.09.18.17.27.26l.29.24-.23.26-.35-.31L23,26.81l.37.32-.22.25-.27-.26a3.63,3.63,0,0,0-.32-.25m1-.22a1.42,1.42,0,0,0,.37-.09,1.66,1.66,0,0,0,0,.46c0,.21,0,.44,0,.69a1.52,1.52,0,0,0-.37.09,2.6,2.6,0,0,0,0-.63,3.65,3.65,0,0,0-.07-.52m.61-.4V25.9l1-.09a.9.9,0,0,0,0,.4,4,4,0,0,0-1,0M26,28a3.24,3.24,0,0,0,.37.28l-.26.29-.33-.31-.87-.77a3.46,3.46,0,0,1,.27,1,6.93,6.93,0,0,1,.09.78,1,1,0,0,0-.42.11,2.44,2.44,0,0,0,0-.86,3,3,0,0,0-.24-.85c-.2.24-.38.44-.51.62l-.24-.21c.13-.13.38-.4.73-.81l-.46-.38.24-.28.44.41c.39-.44.66-.76.84-1l.24.21c-.13.12-.36.38-.71.76a2.26,2.26,0,0,0,.83.11,1.71,1.71,0,0,0,.8-.25.55.55,0,0,0,0,.44,2.23,2.23,0,0,1-.85.14,2.47,2.47,0,0,1-.91-.22Zm-4.06-.33a1.09,1.09,0,0,0,0-.36,3.26,3.26,0,0,1,.78-.13,1.58,1.58,0,0,0,0,.38,2.54,2.54,0,0,0-.82.11m.63.85a1.59,1.59,0,0,0,0-.34,4.24,4.24,0,0,1,.81-.18,1.55,1.55,0,0,0,0,.37,2.4,2.4,0,0,0-.81.15m1.25.05a1.17,1.17,0,0,0,.37-.08,5.4,5.4,0,0,0,.31.73c.14.29.26.52.34.67a1.6,1.6,0,0,0-.47.19,2.24,2.24,0,0,0-.19-.73q-.2-.47-.36-.78m2.23-4.27a3.86,3.86,0,0,0,.39-.3l-.32-.4c-.13-.15-.26-.3-.4-.44L26,23c.1.15.23.3.37.47l.32.39.38-.34.19.23-.41.31.81,1,.27-.38a1.91,1.91,0,0,0,.17.24c-.11.14-.22.3-.35.5s-.25.4-.36.6c-.14-.07-.24-.14-.33-.19.1-.11.24-.29.41-.52l-.86-1c-.09.09-.22.19-.36.33Zm.55-1.82.34-.23a6,6,0,0,0,.49.65c.23.28.41.5.53.66s.26.34.41.56a2.73,2.73,0,0,1,.37.72,3.13,3.13,0,0,1,.16.83l-.41.06a1.4,1.4,0,0,0,0-.61,3.06,3.06,0,0,0-.3-.7,6.8,6.8,0,0,0-.54-.77c-.21-.26-.39-.48-.54-.65a5.94,5.94,0,0,0-.49-.52m.88-.31.27-.23c.08.11.2.27.36.46l1.13,1.36c.21.26.39.46.53.62l-.27.22c-.27-.34-.44-.55-.5-.64l-1.13-1.36-.39-.43m.45-.81.27-.23c.14.19.3.38.46.59L30,23.37c.3.36.52.63.67.78l-.28.23c-.12-.17-.34-.44-.64-.8L28.41,22c-.16-.2-.32-.39-.48-.56M30.29,21l.57-.31.79-.49c-.19-.32-.34-.54-.41-.65L31,19.18a3.05,3.05,0,0,0,.42-.19,2.06,2.06,0,0,0,.2.46c.11.2.21.38.32.54l.84-.51.56-.39.19.32c-.22.11-.41.23-.59.34l-.82.51a2,2,0,0,0,.48.48,1.78,1.78,0,0,0,.59.27,3.9,3.9,0,0,0,.71.12,2.78,2.78,0,0,0,.76-.05,1.43,1.43,0,0,0-.06.51q-.3,0-.6,0a3.59,3.59,0,0,1-.57-.11,3.52,3.52,0,0,1-.56-.21,4.34,4.34,0,0,1-.54-.33,3.91,3.91,0,0,1,.06.64,2,2,0,0,1-.06.54,2.62,2.62,0,0,1-.17.57,5.48,5.48,0,0,1-.31.68,2.69,2.69,0,0,0-.45-.16,3.14,3.14,0,0,0,.42-.68,2.31,2.31,0,0,0,.21-.71,2.34,2.34,0,0,0,0-.7,2,2,0,0,0-.22-.64l-.78.48-.55.35Zm5.43-2.47a7.19,7.19,0,0,0,.7-.24L38,17.69l.12.33a2.27,2.27,0,0,0-.42.34c-.09.1-.2.21-.3.34l.07.18,1-.38c.14-.06.31-.12.5-.22l.12.3-.52.18-1,.38.25.67a.29.29,0,0,1-.06.35,4.62,4.62,0,0,1-.49.3,2.6,2.6,0,0,0-.26-.32l.35-.13c.11,0,.13-.12.09-.24l-.19-.51-1.12.42-.59.24-.11-.29.58-.21L37.11,19a3.18,3.18,0,0,0-.16-.32,1.13,1.13,0,0,0,.19-.19,4,4,0,0,1,.3-.31l-.91.34-.7.28ZM35,17.21a1.72,1.72,0,0,1,.27-.27,5.29,5.29,0,0,1,.52.47,1.66,1.66,0,0,0-.3.28,2.77,2.77,0,0,0-.49-.48m1-.54c.11-.07.21-.15.32-.21.18.27.31.45.38.54-.09.06-.2.12-.32.21a3.62,3.62,0,0,0-.38-.54m1.2-.54.47.05a3,3,0,0,0-.23.88l.88-.34a2,2,0,0,0,.12.37l.15.36-.34.12-.17-.45-2.8,1.05.18.48-.34.12c0-.13-.09-.26-.13-.39s-.1-.24-.15-.35l2.26-.85c0-.18,0-.36,0-.53s0-.34,0-.52M40,15.51a3.59,3.59,0,0,1,.27-.25l.6.57-.29.25a7.91,7.91,0,0,0-.58-.57m-.18,1.18.35-.06.61-.14c0,.21.08.43.13.66l.24,1.08c.13-.24.25-.45.34-.64a.67.67,0,0,0,.25.25c-.08.15-.18.33-.3.52a4.48,4.48,0,0,0-.29.58,2.76,2.76,0,0,0-.37-.16.85.85,0,0,0,0-.5l-.31-1.42a4.91,4.91,0,0,0-.62.17Zm1.39-.31.52-.1.63-.15-.21-.9a3.69,3.69,0,0,0-.1-.39l.36-.09a3.27,3.27,0,0,0,.07.4l.21.92.65-.15.39-.11.07.33a2.65,2.65,0,0,0-.38.07l-.67.15L43.08,18c0,.19.09.38.14.56l-.36.09c0-.2-.06-.39-.1-.56l-.38-1.66-.61.14-.53.13ZM45.48,14a1.24,1.24,0,0,0,.37.11,2.17,2.17,0,0,0-.2.29l.63-.06.49-.06,0,.3c-.19,0-.4,0-.64,0l.12.3a1.25,1.25,0,0,0-.34.12c0-.14-.09-.27-.14-.4l-.31,0a2.65,2.65,0,0,1-.25.41,1.39,1.39,0,0,0-.36-.12,2.8,2.8,0,0,0,.32-.4,3.22,3.22,0,0,0,.29-.56m1.75-.12a2.31,2.31,0,0,0,.43.09,1.06,1.06,0,0,0-.2.28l.68-.06.47-.06,0,.3c-.18,0-.4,0-.66,0l.17.27a1.15,1.15,0,0,0-.35.1c0-.12-.09-.24-.13-.35l-.38,0a3.45,3.45,0,0,1-.24.41,1.39,1.39,0,0,0-.34-.12,2.65,2.65,0,0,0,.32-.45,1.81,1.81,0,0,0,.2-.48m-.57,2.81a1.68,1.68,0,0,1,0,.31l.92-.06,0-.32Zm-1.11-1.55,2.61-.21c0,.21,0,.48.05.81s.06.6.08.82l-.4,0,0,.32.45,0,.6-.07,0,.29a5.15,5.15,0,0,0-.59,0l-.46,0c0,.27,0,.54.08.79l-.37,0c0-.26,0-.52,0-.79l-.94.08a1.12,1.12,0,0,1-.3.49,2.35,2.35,0,0,1-.69.42.66.66,0,0,0-.27-.28,1.9,1.9,0,0,0,.59-.26.74.74,0,0,0,.31-.35l-.59,0-.61.07,0-.28.61,0,.65-.06a1.05,1.05,0,0,0,0-.31l-.67.05c0-.21,0-.49,0-.82s-.06-.6-.09-.81m.37.21,0,.21,1.91-.15,0-.21Zm0,.46V16l1.92-.15,0-.21Zm0,.46v.22l1.91-.15v-.23Zm5.13-.46.26-.18c.17.27.3.48.38.63a2,2,0,0,1-.32.2,4.66,4.66,0,0,0-.32-.63L51,17.1c0,.24,0,.5,0,.8l-.37,0c0-.3.06-.56.08-.79L50.79,16a4.47,4.47,0,0,1-.24.49,4.27,4.27,0,0,1-.33.51l-.27-.3a3,3,0,0,0,.42-.58,4.42,4.42,0,0,0,.43-1h-.1a2.09,2.09,0,0,0-.5,0l0-.34a4.35,4.35,0,0,0,.48,0l.18,0,0-.35c0-.19,0-.36,0-.53l.39,0a2.12,2.12,0,0,0-.07.53l0,.35h.19l.44,0,0,.31-.63-.06Zm1.09-1.56,1.37.11c0,.32-.07.6-.08.84l-.18,2.28c0,.15,0,.23.05.24a.4.4,0,0,0,.15,0s.09,0,.11-.12a.9.9,0,0,0,0-.34,1,1,0,0,0,.35.17,1.44,1.44,0,0,1-.2.47.27.27,0,0,1-.23.12l-.32,0A.32.32,0,0,1,53,17.9c-.06-.06-.07-.2,0-.4l.23-2.87-.67-.06c0,.67-.1,1.19-.14,1.56a4.54,4.54,0,0,1-.24,1,2.49,2.49,0,0,1-.59.87,1.85,1.85,0,0,0-.29-.31,1.51,1.51,0,0,0,.43-.44,1.61,1.61,0,0,0,.24-.56,4.13,4.13,0,0,0,.12-.63c0-.22.06-.51.09-.85s0-.66,0-.94m6.68,2.69c-.06.15-.13.32-.2.52l-.42,1.25a.39.39,0,0,1-.34.3,2.44,2.44,0,0,1-.67-.05,1.22,1.22,0,0,0-.05-.47,2.93,2.93,0,0,0,.56.12.18.18,0,0,0,.18-.08c0-.08.2-.54.49-1.41L56,16.45a18.37,18.37,0,0,0,.73-1.82l.45.15a1.75,1.75,0,0,0-.29.54l1.81.51.57.12-.1.33a3.86,3.86,0,0,0-.48-.16l-1.91-.53-.3.7Zm-3.5,0a3.46,3.46,0,0,0,.54.19l1.48.4a3.64,3.64,0,0,0,.53.12l-.09.33-.5-.17-1.49-.41-.56-.12Zm6.47,2.14-.14.27a3.82,3.82,0,0,0-.64-.2c-.2.43-.33.74-.41.94L60.36,20c.13-.26.27-.55.42-.9-.37-.09-.64-.15-.8-.17a1.08,1.08,0,0,0,0-.36c.17.06.47.16.91.29l.26-.56a7.14,7.14,0,0,0-.74-.25v-.35a.74.74,0,0,0,.44-.25,3.59,3.59,0,0,0,.46-.5l-.47-.19.13-.27.51.25a3.35,3.35,0,0,0,.41-.54,2,2,0,0,0,.32.27,1.36,1.36,0,0,0-.43.4l.22.11.61.26-.13.28c-.18-.1-.38-.21-.58-.3L61.59,17c-.4.41-.66.68-.78.78l.44.2c.11-.24.2-.44.26-.6l.33.16a4.13,4.13,0,0,0-.3.58l.63.28-.11.24-.63-.28-.23.51a4.59,4.59,0,0,0,.67.18m2-.16a2.09,2.09,0,0,0-.3-.21l.39-.43-1-.45c-.21.17-.39.31-.54.41a.67.67,0,0,0-.23-.27,5.15,5.15,0,0,0,.68-.5,4.53,4.53,0,0,0,.52-.6,1.81,1.81,0,0,0,.34.29,1.89,1.89,0,0,0-.59.47l1.32.59c-.17.18-.37.41-.6.7m-2.63,1.39a.67.67,0,0,0-.17-.39,1.71,1.71,0,0,0,.81-.26,2,2,0,0,0,.67-.61,3,3,0,0,0,.44-.8,2.06,2.06,0,0,0,.34.19A5.18,5.18,0,0,0,63,19a1.7,1.7,0,0,0-.1.57,1.53,1.53,0,0,0,.09.63,1.93,1.93,0,0,0,.39.66.86.86,0,0,0-.4.16,2.57,2.57,0,0,1-.34-.94,2.36,2.36,0,0,1,0-.71A3.05,3.05,0,0,1,62,20a3.32,3.32,0,0,1-.82.34m6.36-1a1.28,1.28,0,0,0,.25.35,2.22,2.22,0,0,0-.57.4l.57.38.34-.53a2.48,2.48,0,0,0,.22-.38l.34.22a2.16,2.16,0,0,0-.27.33l-.36.54.43.29.39.23-.18.28-.37-.26-.43-.29-.52.8.47.3a4.33,4.33,0,0,0,.48.28l-.2.29c-.11-.09-.27-.19-.46-.33l-.45-.3-.51.77c-.09.15-.19.3-.27.45l-.33-.21a3.9,3.9,0,0,0,.32-.42l.5-.77-.57-.37a6.36,6.36,0,0,0-.54-.34l.19-.28a5.12,5.12,0,0,0,.46.33l.63.42.52-.8L67,20.26l-.54.37a2,2,0,0,0-.19-.31,6.07,6.07,0,0,0,.58-.38,5.84,5.84,0,0,0,.71-.63m-3,2.57A8,8,0,0,0,65,21.2l1-1.49-.78.3a1.18,1.18,0,0,0-.06-.38,4.86,4.86,0,0,0,.89-.34,5.24,5.24,0,0,0,1-.63,2,2,0,0,0,.24.4,2.09,2.09,0,0,0-.77.39l-1.26,1.91c-.2.31-.34.55-.43.72Zm5.68,1,.54.5L72,24.5l-.23.27a3,3,0,0,0-.5-.21l-.44-.11-.13.15.82.72c.11.1.25.21.42.34l-.21.24c-.16-.16-.29-.28-.4-.37l-.82-.72-.47.54a.29.29,0,0,1-.34.1,5.34,5.34,0,0,1-.48-.28,2.26,2.26,0,0,0,.15-.39l.28.25c.08.08.17.06.26,0l.35-.4-.89-.8-.49-.4.21-.23.45.42.91.8a1.87,1.87,0,0,0,.2-.29,1.25,1.25,0,0,0,.27.08l.41.11-.73-.64c-.16-.15-.36-.3-.58-.48Zm.81-1.23a1.92,1.92,0,0,1,.37.11,4.6,4.6,0,0,1-.17.67,1.37,1.37,0,0,0-.38-.12,3,3,0,0,0,.18-.66m.93.61a2.71,2.71,0,0,1,.34.18,4.93,4.93,0,0,0-.28.59l-.34-.18A3.63,3.63,0,0,0,72,22.3m1,.8.18.44a3.32,3.32,0,0,0-.88.21l.71.62a1.72,1.72,0,0,0-.27.27l-.25.32-.27-.25.33-.37-2.25-2-.33.38-.28-.24.29-.3.23-.3,1.81,1.59a4.77,4.77,0,0,0,.5-.19L73,23.1m1.63,2,.79,1-.54.21c-.23.09-.45.18-.69.26a2.87,2.87,0,0,1-.21.73.84.84,0,0,1-.33.32.59.59,0,0,1-.41,0,.78.78,0,0,1-.39-.28,1.1,1.1,0,0,0,.26-.3c.11.18.21.27.3.24a.53.53,0,0,0,.24-.15,1.69,1.69,0,0,0,.19-.33,4.32,4.32,0,0,0,.11-.48l.48-.19a4.16,4.16,0,0,0,.52-.25l-.3-.36L72,27.74l-.21-.26c.17-.13.38-.29.62-.49l1.68-1.39.53-.46m1.9,1.71a2.09,2.09,0,0,0-.08.23,1,1,0,0,1-.08.22,2.25,2.25,0,0,0-.31-.16l.1-.21a1.55,1.55,0,0,0,.08-.23l.29.15m-1.2-.51,1.52,1.84-.25.19-.24.21-.21-.25.3-.25-1.1-1.33-.29.24-.21-.26a2.49,2.49,0,0,0,.24-.17l.24-.22m-.41.74a4.52,4.52,0,0,0,.37.48l.33.41.37.42-.21.18a5.13,5.13,0,0,0-.35-.44l-.32-.4c-.16-.19-.29-.35-.41-.47Zm-.69.25c.08.12.19.26.32.42l.72.87.39.44-.24.18a2.73,2.73,0,0,0-.23-.3L75,28.7l-.83.68c-.1.09-.13.17-.07.25a.93.93,0,0,0,.16.18.15.15,0,0,0,.16.06,1.41,1.41,0,0,0,.32-.18,1,1,0,0,0,.09.37c-.27.16-.46.21-.55.16A1.32,1.32,0,0,1,74,30a2.24,2.24,0,0,1-.26-.36c-.09-.14,0-.3.17-.47l.87-.72-.24-.3a2.74,2.74,0,0,1-.6.39,1.35,1.35,0,0,1-.48.12,1.42,1.42,0,0,1-.42-.08l-.41-.17a.94.94,0,0,0,.06-.4c.43.29.75.39,1,.31a2.2,2.2,0,0,0,.67-.41L74,27.53ZM83.11,31A37.92,37.92,0,1,1,32,14.73,37.94,37.94,0,0,1,83.11,31m-1,.54A36.74,36.74,0,1,1,32.55,15.79,36.74,36.74,0,0,1,82.06,31.51m2.37-1.22A39.4,39.4,0,1,1,31.32,13.42,39.41,39.41,0,0,1,84.43,30.29m-.42.22A38.93,38.93,0,1,1,31.54,13.84,38.94,38.94,0,0,1,84,30.51" transform="translate(-10.03 -9)"/><path class="cls-2" d="M78.7,34.36a1.14,1.14,0,0,1-1.35-.64,1.37,1.37,0,0,1,.72-1.92,1.41,1.41,0,0,1,2,.48,1.11,1.11,0,0,1-.25,1.48l-.19-.36a.74.74,0,0,0,.13-1c-.31-.59-1-.55-1.51-.26s-1,.79-.63,1.41a.77.77,0,0,0,.86.43Z" transform="translate(-10.03 -9)"/><path class="cls-2" d="M80.58,37.11a1.41,1.41,0,0,1-2-.71,1.56,1.56,0,1,1,2,.71Zm-.9-2.2c-.61.25-1,.77-.76,1.37s.9.69,1.5.45,1-.75.74-1.36S80.27,34.67,79.68,34.91Z" transform="translate(-10.03 -9)"/><polygon class="cls-2" points="72.19 28.34 72.31 28.72 69.75 29.51 70.22 31.01 69.87 31.06 69.31 29.23 72.19 28.34"/><polygon class="cls-2" points="72.92 30.81 73 31.2 70.4 31.8 70.75 33.33 70.4 33.35 69.97 31.48 72.92 30.81"/><polygon class="cls-2" points="72.14 35.44 71.92 33.96 70.87 34.12 71.11 35.74 70.76 35.74 70.47 33.78 73.46 33.34 73.74 35.28 73.41 35.33 73.17 33.77 72.26 33.91 72.48 35.39 72.14 35.44"/><path class="cls-2" d="M81,47.72l0-.3a1.24,1.24,0,0,1,.41-.06,1,1,0,0,1-.5-.91c0-.87.58-1.37,1.44-1.42A1.41,1.41,0,0,1,84,46.34a1.13,1.13,0,0,1-.85,1.28l0-.4a.78.78,0,0,0,.53-.87c0-.7-.61-.94-1.28-.9s-1.18.34-1.14,1,.49.82,1,.79h0l0-.85.35,0,.07,1.24Z" transform="translate(-10.03 -9)"/><polygon class="cls-2" points="72.31 41.33 72.35 39.83 71.29 39.8 71.23 41.44 70.89 41.38 70.95 39.39 73.97 39.49 73.91 41.45 73.57 41.44 73.62 39.87 72.69 39.84 72.65 41.34 72.31 41.33"/><path class="cls-2" d="M81.88,54.82a1.42,1.42,0,0,1-1.33-1.65,1.56,1.56,0,1,1,1.33,1.65Zm.37-2.36c-.65-.1-1.27.14-1.37.78s.42,1.06,1.06,1.16,1.23-.12,1.34-.78S82.88,52.56,82.25,52.46Z" transform="translate(-10.03 -9)"/><polygon class="cls-2" points="73.13 46.86 72.66 48.74 72.33 48.65 72.71 47.15 71.76 46.92 71.41 48.32 71.07 48.24 71.42 46.83 70.11 46.51 70.21 46.12 73.13 46.86"/><path class="cls-2" d="M79.26,61a1.13,1.13,0,0,1-.41-1.44,1.35,1.35,0,0,1,1.92-.72,1.4,1.4,0,0,1,1,1.84,1.1,1.1,0,0,1-1.28.78l.15-.37a.77.77,0,0,0,.82-.55c.24-.62-.23-1.09-.8-1.31s-1.23-.19-1.48.46a.79.79,0,0,0,.25.93Z" transform="translate(-10.03 -9)"/><path class="cls-2" d="M78.43,64.21a1.41,1.41,0,0,1-.78-2,1.4,1.4,0,0,1,2-.55,1.42,1.42,0,0,1,.76,2A1.38,1.38,0,0,1,78.43,64.21Zm1-2.13a1.07,1.07,0,0,0-1.53.33c-.31.63.08,1.14.66,1.42a1,1,0,0,0,1.51-.33C80.42,62.88,80.06,62.37,79.48,62.08Z" transform="translate(-10.03 -9)"/><path class="cls-2" d="M76.48,66.87l1.2.8h0c-.34-.37-1.16-1.49-1.77-2.29l.19-.3c.79.2,2.29.56,2.79.72h0c-.31-.17-.87-.52-1.31-.8l-1-.65.2-.32,2.54,1.63-.32.5c-1-.21-2.22-.52-2.6-.64h0c.2.22,1,1.35,1.63,2.14l-.32.49-2.53-1.63.21-.33Z" transform="translate(-10.03 -9)"/><path class="cls-2" d="M77.09,69l-.72.89a.88.88,0,0,1-1.3.23A.89.89,0,0,1,75,68.75l.45-.57-1-.77.25-.31Zm-1.38-.59-.44.55a.56.56,0,1,0,.86.7l.44-.56Z" transform="translate(-10.03 -9)"/><path class="cls-2" d="M75,71.52l-1.31-1.25c-.51-.5-.92-.35-1.19-.07s-.38.7.12,1.18l1.31,1.26-.27.29-1.3-1.24A1.18,1.18,0,1,1,73.93,70l1.32,1.26Z" transform="translate(-10.03 -9)"/><polygon class="cls-2" points="62.16 64.77 62.89 64.12 63.12 64.38 61.35 65.93 61.12 65.67 61.86 65.03 60.09 63.02 60.4 62.76 62.16 64.77"/><polygon class="cls-2" points="58.39 66.15 59.59 65.25 58.95 64.4 57.63 65.39 57.47 65.08 59.06 63.89 60.87 66.31 59.3 67.48 59.09 67.21 60.35 66.27 59.8 65.53 58.6 66.43 58.39 66.15"/><path class="cls-2" d="M67.42,75.72l-.7-1.13.33-.21,1.6,2.56-1,.62a.82.82,0,0,1-1.23-.18.68.68,0,0,1,.06-.87c-.24.07-.52,0-.8-.41L65.61,76a2.07,2.07,0,0,0-.35-.49l.33-.2a1.91,1.91,0,0,1,.39.52l0,.05c.23.37.43.46.89.18Zm.18.28-.55.35c-.4.25-.48.5-.3.79s.45.31.8.1l.59-.38Z" transform="translate(-10.03 -9)"/><path class="cls-2" d="M64,77.14A.68.68,0,0,0,63,77c-.43.2-.5.48-.38.74s.33.36.94.24,1.05,0,1.23.35,0,.87-.56,1.16a.93.93,0,0,1-1.3-.28l.36-.18a.59.59,0,0,0,.81.16c.33-.15.45-.39.33-.65s-.32-.29-.86-.18c-.86.18-1.14-.06-1.31-.41s0-.94.62-1.25a1,1,0,0,1,1.42.3Z" transform="translate(-10.03 -9)"/><path class="cls-2" d="M59.49,79a1.14,1.14,0,0,1,.82-1.25,1.37,1.37,0,0,1,1.81,1,1.41,1.41,0,0,1-.75,1.94,1.09,1.09,0,0,1-1.43-.45l.37-.13a.77.77,0,0,0,1,.26c.62-.23.67-.89.46-1.46s-.67-1-1.32-.81a.76.76,0,0,0-.54.79Z" transform="translate(-10.03 -9)"/><rect class="cls-2" x="58.71" y="78.33" width="0.4" height="3.02" transform="translate(-30.19 10.9) rotate(-16.42)"/><polygon class="cls-2" points="45.99 71.46 47.45 71.12 47.21 70.08 45.6 70.45 45.58 70.11 47.52 69.66 48.19 72.6 46.28 73.04 46.2 72.71 47.73 72.36 47.53 71.46 46.06 71.8 45.99 71.46"/><path class="cls-2" d="M55.09,79.21l.4,3-.52.07c-.53-.64-1.66-2-1.87-2.3h0c.08.38.14.85.21,1.34l.16,1.17-.37,0-.41-3,.49-.07c.48.6,1.67,2.06,1.91,2.37h0C55,81.5,55,81,54.87,80.46l-.16-1.2Z" transform="translate(-10.03 -9)"/><path class="cls-2" d="M49.6,80.55a1.14,1.14,0,0,1,1.16-.94,1.35,1.35,0,0,1,1.42,1.47,1.39,1.39,0,0,1-1.3,1.62,1.09,1.09,0,0,1-1.22-.86h.4a.76.76,0,0,0,.82.54c.67,0,.91-.65.89-1.26s-.31-1.2-1-1.17a.78.78,0,0,0-.76.59Z" transform="translate(-10.03 -9)"/><polygon class="cls-2" points="37.05 72 38.55 72.06 38.6 71 36.96 70.92 37.02 70.58 39.01 70.67 38.87 73.69 36.91 73.6 36.93 73.26 38.5 73.33 38.54 72.41 37.04 72.34 37.05 72"/><path class="cls-2" d="M44.9,80.24l.46-.84.4.06-1.56,2.8-.48-.08L43.11,79l.42.07.18,1Zm-1.15.16c.16.83.24,1.27.27,1.5h0c.11-.25.37-.72.71-1.35Z" transform="translate(-10.03 -9)"/><path class="cls-2" d="M42.71,78.93l-.78,2.92-.51-.14c-.24-.79-.76-2.48-.84-2.84h0c-.07.38-.19.84-.32,1.31L40,81.32l-.36-.09.77-2.92.48.13c.22.73.75,2.54.85,2.92h0c.07-.34.2-.83.34-1.36l.31-1.17Z" transform="translate(-10.03 -9)"/><path class="cls-2" d="M37.57,80.52a1.37,1.37,0,0,1-.81-1.88,1.43,1.43,0,0,1,1.89-.94l1,.38L38.58,80.9Zm1.58-2.26L38.56,78a1,1,0,0,0-1.4.75,1,1,0,0,0,.57,1.44l.6.22Z" transform="translate(-10.03 -9)"/><path class="cls-2" d="M35.27,77.16a.69.69,0,0,0-.42-.85c-.42-.22-.68-.11-.82.14s-.09.49.38.9.66.82.46,1.19-.67.57-1.27.25a.93.93,0,0,1-.55-1.21l.36.19a.57.57,0,0,0,.35.74c.33.18.59.13.72-.13s0-.43-.37-.79c-.67-.58-.65-1-.47-1.29s.73-.6,1.38-.26a1,1,0,0,1,.61,1.31Z" transform="translate(-10.03 -9)"/><path class="cls-2" d="M30.52,75.14a1.41,1.41,0,1,1,.32,2A1.39,1.39,0,0,1,30.52,75.14Zm2,1.29a1.07,1.07,0,0,0-.16-1.56c-.59-.38-1.14-.05-1.49.49a1,1,0,1,0,1.65,1.07Z" transform="translate(-10.03 -9)"/><polygon class="cls-2" points="19.02 66.89 17.49 65.69 17.7 65.42 18.92 66.37 19.52 65.6 18.38 64.71 18.6 64.44 19.74 65.33 20.57 64.27 20.88 64.51 19.02 66.89"/><polygon class="cls-2" points="16.63 64.46 17.35 65.12 17.12 65.37 15.39 63.78 15.62 63.53 16.34 64.19 18.15 62.22 18.44 62.49 16.63 64.46"/><path class="cls-2" d="M26.72,69.8,25,72.4l-.28-.32c.59-.83,1.31-1.89,1.53-2.16h0c-.34.2-1.69.83-2.39,1.18l-.26-.29c.39-.58,1.27-1.9,1.49-2.19h0c-.46.27-1.81.89-2.38,1.18l-.26-.3,2.85-1.33.28.33c-.4.59-1.23,1.83-1.45,2.12h0c.4-.23,1.67-.83,2.32-1.14Z" transform="translate(-10.03 -9)"/><path class="cls-2" d="M23.65,67.52l.93-.26.23.32-3.08.88-.29-.4,1.81-2.66.25.34-.55.8Zm-.91-.7c-.48.7-.73,1.07-.88,1.26h0c.25-.09.77-.24,1.45-.44Z" transform="translate(-10.03 -9)"/><path class="cls-2" d="M21.69,65.37l1.15-.67L23,65l-2.6,1.53-.6-1a.83.83,0,0,1,.21-1.23.7.7,0,0,1,.88.08c-.07-.24,0-.52.43-.79l.11-.06a2.07,2.07,0,0,0,.49-.34l.2.33a2,2,0,0,1-.53.38l-.06,0c-.37.22-.47.42-.19.88Zm-.29.17L21.07,65c-.24-.4-.49-.48-.78-.31s-.33.43-.12.79l.36.6Z" transform="translate(-10.03 -9)"/><polygon class="cls-2" points="9.56 52.56 10.21 53.92 11.17 53.45 10.46 51.97 10.79 51.87 11.65 53.66 8.93 54.97 8.08 53.19 8.39 53.05 9.07 54.46 9.9 54.06 9.25 52.71 9.56 52.56"/><polygon class="cls-2" points="8.23 49.04 8.72 50.46 9.73 50.11 9.2 48.55 9.54 48.49 10.19 50.37 7.33 51.35 6.69 49.5 7.02 49.38 7.53 50.87 8.4 50.57 7.91 49.15 8.23 49.04"/><path class="cls-2" d="M19.41,57l-2.93.72-.13-.51c.59-.59,1.82-1.86,2.1-2.1h0c-.37.12-.84.23-1.31.35L16,55.71l-.09-.37,2.93-.72.12.49c-.54.54-1.88,1.88-2.16,2.14h0c.33-.1.83-.23,1.36-.36l1.17-.29Z" transform="translate(-10.03 -9)"/><path class="cls-2" d="M18.35,51.49l0,.31-.39.09a1,1,0,0,1,.57.86,1.34,1.34,0,0,1-1.31,1.54,1.42,1.42,0,0,1-1.77-1.17,1.13,1.13,0,0,1,.74-1.35l.05.4a.79.79,0,0,0-.46.91c.1.69.69.89,1.36.8s1.15-.45,1.05-1.13-.56-.77-1.07-.7h0l.12.84-.34.05-.17-1.23Z" transform="translate(-10.03 -9)"/><rect class="cls-2" x="15.29" y="50.52" width="3.02" height="0.4" transform="translate(-13.7 -7.63) rotate(-4.2)"/><path class="cls-2" d="M18.22,49.64l-3,0v-.53c.7-.44,2.2-1.39,2.53-1.56h0c-.39,0-.87,0-1.36,0H15.19v-.38l3,0v.5c-.65.4-2.26,1.39-2.6,1.58h0c.34,0,.86,0,1.4,0h1.21Z" transform="translate(-10.03 -9)"/><polygon class="cls-2" points="6.98 35.45 6.85 36.95 7.92 37.04 8.06 35.39 8.39 35.48 8.22 37.46 5.22 37.2 5.39 35.24 5.73 35.27 5.59 36.84 6.51 36.92 6.64 35.42 6.98 35.45"/><polygon class="cls-2" points="7.39 32.84 7.14 34.32 8.2 34.5 8.47 32.88 8.8 32.98 8.47 34.94 5.49 34.45 5.82 32.51 6.16 32.56 5.9 34.12 6.81 34.27 7.05 32.79 7.39 32.84"/><path class="cls-2" d="M17.75,40.75l1.29.33-.1.38L16,40.71l.29-1.14c.15-.6.56-.84,1-.72a.69.69,0,0,1,.56.67c.12-.22.35-.38.86-.25l.13,0a2.07,2.07,0,0,0,.59.11l-.1.38a2.06,2.06,0,0,1-.64-.11l-.06,0c-.42-.11-.63,0-.76.49Zm-.32-.09.16-.63c.11-.45,0-.69-.33-.77s-.54.08-.64.47l-.18.68Z" transform="translate(-10.03 -9)"/><rect class="cls-2" x="18.1" y="36.64" width="0.4" height="3.02" transform="translate(-33.66 34.79) rotate(-72.04)"/><path class="cls-2" d="M20,37.69l-2.79-1.13.19-.49c.82-.14,2.56-.45,2.93-.49h0c-.37-.12-.81-.3-1.26-.48L18,34.65l.15-.35,2.79,1.13-.18.46c-.76.13-2.62.44-3,.48h0c.33.11.8.3,1.31.5l1.12.45Z" transform="translate(-10.03 -9)"/><path class="cls-2" d="M22.38,32.61l-.15.27a2.22,2.22,0,0,1-.38-.15,1,1,0,0,1,0,1,1.35,1.35,0,0,1-2,.47,1.41,1.41,0,0,1-.75-2,1.13,1.13,0,0,1,1.39-.66L20.3,32a.79.79,0,0,0-.9.47c-.33.62,0,1.13.63,1.44s1.19.31,1.51-.29,0-1-.46-1.2h0l-.4.75-.3-.16.57-1.1Z" transform="translate(-10.03 -9)"/></svg>